<svg width="192" height="192" viewBox="0 0 192 192" fill="none" xmlns="http://www.w3.org/2000/svg">
<circle cx="96" cy="96" r="96" fill="#276B5B"/>
<path d="M143.298 27.3623L104.058 24.7178L95.0828 157.895L134.322 160.54L143.298 27.3623Z" fill="#E0E0E0"/>
<path d="M137.441 29.1193L109.705 27.25L107.835 54.9868L135.572 56.8561L137.441 29.1193Z" fill="#4D8AF0"/>
<path opacity="0.5" d="M135.178 62.6105L107.441 60.7412L105.572 88.478L133.308 90.3473L135.178 62.6105Z" fill="#4D8AF0"/>
<path opacity="0.3" d="M132.921 96.0954L105.184 94.2261L103.315 121.963L131.052 123.832L132.921 96.0954Z" fill="#4D8AF0"/>
<path d="M99.8539 28.1345L62.0078 38.8296L98.1698 166.794L136.016 156.099L99.8539 28.1345Z" fill="#F5F5F5"/>
<path d="M94.9133 31.7633L68.1613 39.3232L75.7212 66.0753L102.473 58.5153L94.9133 31.7633Z" fill="#FF5252"/>
<path opacity="0.5" d="M104.051 64.0655L77.2992 71.6255L84.8592 98.3775L111.611 90.8175L104.051 64.0655Z" fill="#FF5252"/>
<path opacity="0.3" d="M113.174 96.3629L86.4221 103.923L93.9821 130.675L120.734 123.115L113.174 96.3629Z" fill="#FF5252"/>
<path d="M68.8227 41.5614L34.8057 61.2983L101.54 176.316L135.557 156.579L68.8227 41.5614Z" fill="#F5F5F5"/>
<path d="M65.6241 48.4831L41.5784 62.4346L55.5298 86.4803L79.5755 72.5288L65.6241 48.4831Z" fill="#69F0AE"/>
<path opacity="0.5" d="M81.7653 75.3377L57.7198 89.2891L71.6712 113.335L95.7166 99.3832L81.7653 75.3377Z" fill="#69F0AE"/>
<path opacity="0.3" d="M98.6114 104.372L74.5659 118.323L88.5173 142.369L112.563 128.417L98.6114 104.372Z" fill="#69F0AE"/>
<path d="M48.4409 56.6471L18.8657 82.5703L106.517 182.569L136.092 156.646L48.4409 56.6471Z" fill="white"/>
<path opacity="0.5" d="M67.6469 87.3042L46.7412 105.628L65.0654 126.534L85.9711 108.21L67.6469 87.3042Z" fill="#6C63FF"/>
<path opacity="0.3" d="M89.7696 112.542L68.8639 130.867L87.1881 151.772L108.094 133.448L89.7696 112.542Z" fill="#6C63FF"/>
<path d="M46.0302 62.5247L25.1243 80.8491L43.3857 101.683L64.2916 83.3587L46.0302 62.5247Z" fill="#6C63FF"/>
</svg>
